<svg xmlns="http://www.w3.org/2000/svg" width="43.879" height="27.757" viewBox="0 0 43.879 27.757">
  <g id="shipped" transform="translate(0 -94.061)">
    <g id="Group_91" data-name="Group 91" transform="translate(0 94.062)">
      <g id="Group_90" data-name="Group 90" transform="translate(0 0)">
        <path id="Path_68" data-name="Path 68" d="M40.807,105.829l-1.136-4.545a.687.687,0,0,0,.544-.672v-.733a2.889,2.889,0,0,0-2.886-2.886H32.154V95.482a1.421,1.421,0,0,0-1.42-1.42H4.351a1.421,1.421,0,0,0-1.42,1.42V107.94a.687.687,0,0,0,1.374,0V95.482a.046.046,0,0,1,.046-.046H30.734a.046.046,0,0,1,.046.046V107.94a.687.687,0,0,0,1.374,0v-.779h8.108a2.248,2.248,0,0,1,2.135,1.557H40.26a.687.687,0,0,0-.687.687v1.466a2.155,2.155,0,0,0,2.153,2.153H42.5v3.023h-1.8a4.35,4.35,0,0,0-8.224,0h-.331v-5.176a.687.687,0,0,0-1.374,0v5.176H16.525a4.35,4.35,0,0,0-8.224,0H4.351A.046.046,0,0,1,4.305,116V114.49H7.283a.687.687,0,1,0,0-1.374H.687a.687.687,0,1,0,0,1.374H2.931V116a1.421,1.421,0,0,0,1.42,1.42H8.063c0,.015,0,.03,0,.046a4.351,4.351,0,0,0,8.7,0c0-.015,0-.031,0-.046H32.246c0,.015,0,.03,0,.046a4.351,4.351,0,0,0,8.7,0c0-.015,0-.031,0-.046h2.246a.687.687,0,0,0,.687-.687v-7.328A3.624,3.624,0,0,0,40.807,105.829Zm-8.654-7.461h5.176a1.513,1.513,0,0,1,1.512,1.512v.046H32.154Zm0,7.42V101.3h6.1l1.122,4.489H32.154ZM12.413,120.444a2.977,2.977,0,1,1,2.977-2.977A2.981,2.981,0,0,1,12.413,120.444Zm24.184,0a2.977,2.977,0,1,1,2.977-2.977A2.981,2.981,0,0,1,36.6,120.444ZM42.5,111.65h-.779a.78.78,0,0,1-.779-.779v-.779H42.5v1.557Z" transform="translate(0 -94.062)" fill="#d73a37"/>
      </g>
    </g>
    <g id="Group_93" data-name="Group 93" transform="translate(10.993 116.047)">
      <g id="Group_92" data-name="Group 92">
        <path id="Path_69" data-name="Path 69" d="M129.687,350.6a1.42,1.42,0,1,0,1.42,1.42A1.421,1.421,0,0,0,129.687,350.6Z" transform="translate(-128.267 -350.597)" fill="#d73a37"/>
      </g>
    </g>
    <g id="Group_95" data-name="Group 95" transform="translate(35.176 116.047)">
      <g id="Group_94" data-name="Group 94">
        <path id="Path_70" data-name="Path 70" d="M411.875,350.6a1.42,1.42,0,1,0,1.42,1.42A1.421,1.421,0,0,0,411.875,350.6Z" transform="translate(-410.455 -350.597)" fill="#d73a37"/>
      </g>
    </g>
    <g id="Group_97" data-name="Group 97" transform="translate(17.588 113.116)">
      <g id="Group_96" data-name="Group 96" transform="translate(0 0)">
        <path id="Path_71" data-name="Path 71" d="M216.174,316.393h-10.26a.687.687,0,1,0,0,1.374h10.26a.687.687,0,1,0,0-1.374Z" transform="translate(-205.227 -316.393)" fill="#d73a37"/>
      </g>
    </g>
    <g id="Group_99" data-name="Group 99" transform="translate(1.466 110.185)">
      <g id="Group_98" data-name="Group 98" transform="translate(0 0)">
        <path id="Path_72" data-name="Path 72" d="M26.583,282.188H17.789a.687.687,0,1,0,0,1.374h8.794a.687.687,0,1,0,0-1.374Z" transform="translate(-17.102 -282.188)" fill="#d73a37"/>
      </g>
    </g>
    <g id="Group_101" data-name="Group 101" transform="translate(12.458 100.658)">
      <g id="Group_100" data-name="Group 100" transform="translate(0 0)">
        <path id="Path_73" data-name="Path 73" d="M156.8,171.224a.687.687,0,0,0-.972,0l-6.11,6.11-3.178-3.178a.687.687,0,1,0-.972.972l3.664,3.664a.687.687,0,0,0,.972,0l6.6-6.6A.687.687,0,0,0,156.8,171.224Z" transform="translate(-145.37 -171.023)" fill="#d73a37"/>
      </g>
    </g>
  </g>
</svg>
