<svg xmlns="http://www.w3.org/2000/svg" width="29.146" height="40.239" viewBox="0 0 29.146 40.239">
  <g id="_003-maps-and-flags" data-name="003-maps-and-flags" transform="translate(-70.573 0)">
    <g id="Group_58" data-name="Group 58" transform="translate(70.573)">
      <g id="Group_57" data-name="Group 57">
        <path id="Path_12" data-name="Path 12" d="M85.146,0A14.589,14.589,0,0,0,70.573,14.573c0,9.972,13.041,24.612,13.6,25.231a1.313,1.313,0,0,0,1.953,0c.555-.618,13.6-15.258,13.6-25.231A14.59,14.59,0,0,0,85.146,0Zm0,36.917C80.757,31.7,73.2,21.417,73.2,14.573a11.949,11.949,0,1,1,23.9,0C97.095,21.417,89.536,31.7,85.146,36.917Z" transform="translate(-70.573)" fill="#d73a37"/>
      </g>
    </g>
    <g id="Group_60" data-name="Group 60" transform="translate(77.814 7.241)">
      <g id="Group_59" data-name="Group 59" transform="translate(0)">
        <path id="Path_13" data-name="Path 13" d="M170.04,92.134a7.332,7.332,0,1,0,7.332,7.332A7.34,7.34,0,0,0,170.04,92.134Zm0,12.04a4.708,4.708,0,1,1,4.708-4.708A4.713,4.713,0,0,1,170.04,104.174Z" transform="translate(-162.708 -92.134)" fill="#d73a37"/>
      </g>
    </g>
  </g>
</svg>
