<svg xmlns="http://www.w3.org/2000/svg" xmlns:xlink="http://www.w3.org/1999/xlink" width="30.756" height="36.157" viewBox="0 0 30.756 36.157">
  <defs>
    <clipPath id="clip-path">
      <rect width="30.755" height="36.157" fill="none"/>
    </clipPath>
  </defs>
  <g id="_006-avatar" data-name="006-avatar" transform="translate(0 0)" clip-path="url(#clip-path)">
    <g id="Group_67" data-name="Group 67">
      <path id="Path_21" data-name="Path 21" d="M144.765,19.482H145a6.909,6.909,0,0,0,5.279-2.284c2.883-3.25,2.4-8.82,2.351-9.352-.187-3.991-2.074-5.9-3.631-6.791A8.325,8.325,0,0,0,144.975,0h-.127a8.338,8.338,0,0,0-4.028,1.026c-1.572.891-3.489,2.8-3.676,6.821-.052.532-.532,6.1,2.351,9.352A6.881,6.881,0,0,0,144.765,19.482ZM139.142,8.034c0-.022.007-.045.007-.06.247-5.369,4.058-5.945,5.691-5.945h.09c2.022.045,5.458.869,5.691,5.945a.146.146,0,0,0,.007.06c.007.052.532,5.144-1.849,7.824a4.907,4.907,0,0,1-3.856,1.6h-.075a4.891,4.891,0,0,1-3.849-1.6C138.625,13.193,139.135,8.079,139.142,8.034Z" transform="translate(-129.519)" fill="#d73a37"/>
      <path id="Path_22" data-name="Path 22" d="M66.826,268.555v-.022c0-.06-.007-.12-.007-.187-.045-1.483-.142-4.949-3.392-6.057l-.075-.022a21.605,21.605,0,0,1-6.215-2.83,1.011,1.011,0,1,0-1.161,1.655,23.32,23.32,0,0,0,6.836,3.122c1.745.621,1.939,2.486,1.992,4.193a1.5,1.5,0,0,0,.007.187,13.591,13.591,0,0,1-.157,2.314,27.556,27.556,0,0,1-13.2,3.07A27.714,27.714,0,0,1,38.246,270.9a12.866,12.866,0,0,1-.157-2.314c0-.06.007-.12.007-.187.052-1.707.247-3.572,1.992-4.193a23.539,23.539,0,0,0,6.836-3.122,1.011,1.011,0,1,0-1.161-1.655,21.369,21.369,0,0,1-6.215,2.83c-.03.008-.052.015-.075.022-3.25,1.116-3.347,4.582-3.392,6.057a1.5,1.5,0,0,1-.007.187v.022a11.482,11.482,0,0,0,.382,3.392.961.961,0,0,0,.389.472c.225.15,5.608,3.579,14.616,3.579s14.391-3.437,14.616-3.579a1,1,0,0,0,.389-.472A12.046,12.046,0,0,0,66.826,268.555Z" transform="translate(-36.073 -239.833)" fill="#d73a37"/>
    </g>
  </g>
</svg>
