<svg xmlns="http://www.w3.org/2000/svg" width="38" height="37.998" viewBox="0 0 38 37.998">
  <g id="_005-air-freight" data-name="005-air-freight" transform="translate(0.002 -0.5)">
    <path id="Path_17" data-name="Path 17" d="M238.5,254.426a.742.742,0,1,0,1.049,0A.741.741,0,0,0,238.5,254.426Zm0,0" transform="translate(-220.602 -234.878)" fill="#d73a37"/>
    <path id="Path_18" data-name="Path 18" d="M29.7,2.672c-1.274.986-1.621,1.494-6.137,5.964L20.858,8.2,22.1,6.952A2.227,2.227,0,0,0,18.951,3.8l-3.51,3.51-12.274-2A2.5,2.5,0,0,0,1.3,9.815l12.232,8.858-2.29,2.29a18.623,18.623,0,0,0-2.46,3.212L3.074,22.5a2.4,2.4,0,0,0-2.042,4.274l4.676,3.237c-.814,1.8-1.309,3.1-1.332,3.156a.742.742,0,0,0,.957.957c.06-.023,1.359-.518,3.156-1.332l3.237,4.677A2.4,2.4,0,0,0,16,35.424l-1.677-5.7a18.636,18.636,0,0,0,3.212-2.46l2.29-2.29L28.684,37.2a2.5,2.5,0,0,0,4.5-1.871l-2-12.273,3.509-3.509A2.227,2.227,0,0,0,31.546,16.4L30.3,17.641l-.441-2.708c4.475-4.521,4.975-4.86,5.961-6.134l0,0c2.289-2.967,2.825-5.963,1.332-7.456S32.671.381,29.7,2.672ZM20,4.854A.742.742,0,0,1,21.051,5.9l-2,2-1.805-.294ZM2.167,8.612A1.02,1.02,0,0,1,2.929,6.78L22.272,9.929l-7.681,7.68Zm-.416,15.54a.915.915,0,0,1,.9-.231l5.335,1.569c-.546.956-1.1,2.011-1.645,3.154L1.878,25.551A.915.915,0,0,1,1.751,24.153Zm12.6,12.595a.915.915,0,0,1-1.4-.126L9.855,32.153c1.143-.55,2.2-1.1,3.154-1.645l1.569,5.335A.915.915,0,0,1,14.346,36.747Zm18.25-19.3a.742.742,0,0,1,1.049,1.05l-2.754,2.754L30.6,19.446Zm-.878,18.121a1.02,1.02,0,0,1-1.832.763l-9-12.424,7.681-7.681ZM16.486,26.211a18.691,18.691,0,0,1-3.553,2.622,54.993,54.993,0,0,1-6.511,3.243,54.288,54.288,0,0,1,3.315-6.63,18.374,18.374,0,0,1,2.55-3.433C30.417,3.927,29.343,4.86,30.443,3.98a3.854,3.854,0,0,1,3.043,1.032,3.855,3.855,0,0,1,1.033,3.043C33.637,9.158,34.559,8.094,16.486,26.211ZM35.789,6.1a4.9,4.9,0,0,0-3.395-3.4c1.074-.545,2.883-1.155,3.716-.322C36.769,3.046,36.605,4.5,35.789,6.1Zm0,0" transform="translate(0 0)" fill="#d73a37"/>
    <path id="Path_19" data-name="Path 19" d="M268.895,197.858l-2.1,2.1a.742.742,0,1,0,1.05,1.05l2.1-2.1a.742.742,0,1,0-1.049-1.049Zm0,0" transform="translate(-246.794 -182.509)" fill="#d73a37"/>
    <path id="Path_20" data-name="Path 20" d="M325.457,141.288l-2.1,2.1a.742.742,0,1,0,1.05,1.05l2.1-2.1a.742.742,0,0,0-1.049-1.05Zm0,0" transform="translate(-299.158 -130.137)" fill="#d73a37"/>
  </g>
</svg>
