<svg xmlns="http://www.w3.org/2000/svg" xmlns:xlink="http://www.w3.org/1999/xlink" width="34.689" height="36.814" viewBox="0 0 34.689 36.814">
  <defs>
    <clipPath id="clip-path">
      <rect width="34.69" height="36.814" fill="none"/>
    </clipPath>
  </defs>
  <g id="pdf_1_" data-name="pdf (1)" transform="translate(0 0)" clip-path="url(#clip-path)">
    <g id="Group_28" data-name="Group 28">
      <g id="Group_27" data-name="Group 27" transform="translate(0)">
        <path id="Path_1" data-name="Path 1" d="M49.261,9.963,39.882.217A.708.708,0,0,0,39.372,0H25.394a2.84,2.84,0,0,0-2.837,2.836v9.907H16.892a2.125,2.125,0,0,0-2.123,2.122V25.489a2.125,2.125,0,0,0,2.123,2.122h5.665v6.372a2.837,2.837,0,0,0,2.837,2.831H46.622a2.837,2.837,0,0,0,2.837-2.829V10.454A.708.708,0,0,0,49.261,9.963ZM39.548,1.911l7.7,8h-7.7ZM16.892,26.195a.707.707,0,0,1-.707-.706V14.865a.707.707,0,0,1,.707-.706H36.009a.707.707,0,0,1,.707.706V25.489a.707.707,0,0,1-.707.706Zm31.152,7.79A1.419,1.419,0,0,1,46.622,35.4H25.394a1.42,1.42,0,0,1-1.421-1.415V27.611H36.009a2.125,2.125,0,0,0,2.123-2.122V14.865a2.125,2.125,0,0,0-2.123-2.122H23.973V2.836a1.422,1.422,0,0,1,1.421-1.42H38.132v9.2a.708.708,0,0,0,.708.708h9.2V33.985Z" transform="translate(-14.769)"/>
      </g>
    </g>
    <g id="Group_30" data-name="Group 30" transform="translate(4.158 17.281)">
      <g id="Group_29" data-name="Group 29" transform="translate(0)">
        <path id="Path_2" data-name="Path 2" d="M76.9,241.033a1.594,1.594,0,0,0-.875-.6,7.145,7.145,0,0,0-1.46-.091H72.6v6.081h1.228v-2.294h.8a7.006,7.006,0,0,0,1.274-.087,1.779,1.779,0,0,0,.637-.288,1.668,1.668,0,0,0,.516-.6,1.984,1.984,0,0,0,.2-.942A1.888,1.888,0,0,0,76.9,241.033Zm-1.052,1.674a.806.806,0,0,1-.384.3,3.173,3.173,0,0,1-.971.1h-.672v-1.726h.593a5.9,5.9,0,0,1,.884.041.849.849,0,0,1,.494.27.786.786,0,0,1,.195.548A.817.817,0,0,1,75.85,242.706Z" transform="translate(-72.596 -240.346)"/>
      </g>
    </g>
    <g id="Group_32" data-name="Group 32" transform="translate(9.82 17.281)">
      <g id="Group_31" data-name="Group 31">
        <path id="Path_3" data-name="Path 3" d="M156.245,242.007a2.657,2.657,0,0,0-.581-.985,2.034,2.034,0,0,0-.917-.56,4.382,4.382,0,0,0-1.157-.116h-2.244v6.081h2.311a3.712,3.712,0,0,0,1.087-.129,2.157,2.157,0,0,0,.863-.485,2.682,2.682,0,0,0,.651-1.074,4,4,0,0,0,.187-1.294A4.488,4.488,0,0,0,156.245,242.007Zm-1.195,2.5a1.287,1.287,0,0,1-.321.587,1.133,1.133,0,0,1-.5.253,3.343,3.343,0,0,1-.743.058h-.917v-4.028h.552a5.562,5.562,0,0,1,1.008.058,1.168,1.168,0,0,1,.568.286,1.392,1.392,0,0,1,.348.589,3.633,3.633,0,0,1,.124,1.083A3.967,3.967,0,0,1,155.05,244.5Z" transform="translate(-151.346 -240.346)"/>
      </g>
    </g>
    <g id="Group_34" data-name="Group 34" transform="translate(15.968 17.281)">
      <g id="Group_33" data-name="Group 33">
        <path id="Path_4" data-name="Path 4" d="M241.015,241.375v-1.029h-4.169v6.081h1.228v-2.584h2.539v-1.029h-2.539v-1.439Z" transform="translate(-236.846 -240.346)"/>
      </g>
    </g>
  </g>
</svg>
