<svg xmlns="http://www.w3.org/2000/svg" xmlns:xlink="http://www.w3.org/1999/xlink" width="18.043" height="18.032" viewBox="0 0 18.043 18.032">
  <defs>
    <clipPath id="clip-path">
      <rect width="18.044" height="18.032" fill="none"/>
    </clipPath>
  </defs>
  <g id="phone-receiver" transform="translate(0 0)" clip-path="url(#clip-path)">
    <g id="Group_36" data-name="Group 36">
      <path id="Path_67" data-name="Path 67" fill="#fff" d="M18.035,14.419a.872.872,0,0,1-.267.764L15.227,17.7a1.43,1.43,0,0,1-.449.325,1.855,1.855,0,0,1-.544.172q-.019,0-.115.01t-.248.01A8.806,8.806,0,0,1,12.7,18.1a8.922,8.922,0,0,1-1.986-.611,16.675,16.675,0,0,1-2.665-1.461,19.867,19.867,0,0,1-3.171-2.674,20.932,20.932,0,0,1-2.216-2.521A17.965,17.965,0,0,1,1.245,8.6a11.986,11.986,0,0,1-.8-1.853A9.83,9.83,0,0,1,.08,5.317,4.731,4.731,0,0,1,0,4.371q.019-.344.019-.382a1.857,1.857,0,0,1,.172-.544A1.431,1.431,0,0,1,.519,3L3.059.455A.841.841,0,0,1,3.671.188.713.713,0,0,1,4.11.331a1.328,1.328,0,0,1,.325.353L6.479,4.562a.93.93,0,0,1,.1.669,1.191,1.191,0,0,1-.325.611l-.936.936a.319.319,0,0,0-.067.124.471.471,0,0,0-.029.143,3.449,3.449,0,0,0,.344.917A8.417,8.417,0,0,0,6.269,9.08,12.407,12.407,0,0,0,7.625,10.6a12.653,12.653,0,0,0,1.528,1.366,8.825,8.825,0,0,0,1.117.716,2.97,2.97,0,0,0,.688.277l.239.048a.455.455,0,0,0,.124-.029.319.319,0,0,0,.124-.067L12.534,11.8a1.17,1.17,0,0,1,.8-.306,1,1,0,0,1,.516.115h.019l3.687,2.178A.961.961,0,0,1,18.035,14.419Z" transform="translate(0 -0.188)"/>
    </g>
  </g>
</svg>
