<svg xmlns="http://www.w3.org/2000/svg" xmlns:xlink="http://www.w3.org/1999/xlink" width="26.5" height="26.501" viewBox="0 0 26.5 26.501">
  <defs>
    <clipPath id="clip-path">
      <rect width="26.5" height="26.501" fill="none"/>
    </clipPath>
  </defs>
  <g id="_002-viber" data-name="002-viber" clip-path="url(#clip-path)">
    <rect id="Rectangle_21" data-name="Rectangle 21" width="26.5" height="26.501" rx="13" fill="#7d3daf"/>
    <g id="Group_87" data-name="Group 87" transform="translate(4.477 4.182)">
      <path id="Path_25" data-name="Path 25" d="M94.141,76.276l-.005-.021a6.05,6.05,0,0,0-4.084-3.93l-.02,0a22.7,22.7,0,0,0-8.543,0l-.02,0a6.052,6.052,0,0,0-4.084,3.93l0,.021a16.722,16.722,0,0,0,0,7.2l0,.021a6.1,6.1,0,0,0,3.859,3.872v1.91a.768.768,0,0,0,1.322.532L84.5,87.8c.42.023.84.037,1.26.037a22.77,22.77,0,0,0,4.272-.405l.02,0a6.05,6.05,0,0,0,4.084-3.93l.005-.021A16.722,16.722,0,0,0,94.141,76.276Zm-1.532,6.857a4.576,4.576,0,0,1-2.883,2.761,21.156,21.156,0,0,1-4.544.367.108.108,0,0,0-.08.033l-1.413,1.451-1.5,1.543a.176.176,0,0,1-.3-.122V86a.109.109,0,0,0-.089-.107h0a4.577,4.577,0,0,1-2.883-2.761,15.175,15.175,0,0,1,0-6.51,4.577,4.577,0,0,1,2.883-2.761,21.139,21.139,0,0,1,7.933,0,4.574,4.574,0,0,1,2.883,2.761A15.159,15.159,0,0,1,92.609,83.133Z" transform="translate(-76.986 -71.916)" fill="#fff"/>
      <path id="Path_26" data-name="Path 26" d="M156.384,148.745c-.177-.054-.346-.09-.5-.155a11.412,11.412,0,0,1-4.3-2.874,11.16,11.16,0,0,1-1.645-2.517c-.211-.429-.389-.875-.57-1.318a1.143,1.143,0,0,1,.335-1.126,2.644,2.644,0,0,1,.886-.665.569.569,0,0,1,.711.169,9.174,9.174,0,0,1,1.1,1.54.733.733,0,0,1-.205.993c-.083.057-.159.123-.237.187a.776.776,0,0,0-.179.188.516.516,0,0,0-.034.453,4.1,4.1,0,0,0,2.3,2.55,1.172,1.172,0,0,0,.59.143c.361-.042.478-.438.73-.645a.688.688,0,0,1,.829-.036c.266.169.524.349.781.532a8.943,8.943,0,0,1,.735.56.583.583,0,0,1,.175.722,2.44,2.44,0,0,1-1.049,1.155,2.529,2.529,0,0,1-.453.144C156.207,148.691,156.538,148.7,156.384,148.745Z" transform="translate(-145.106 -136.067)" fill="#fff"/>
      <path id="Path_27" data-name="Path 27" d="M221.742,131.457a4.314,4.314,0,0,1,4.241,3.568c.064.358.086.723.115,1.086a.255.255,0,0,1-.239.3c-.17,0-.247-.14-.258-.293-.022-.3-.037-.606-.079-.905a3.794,3.794,0,0,0-3.055-3.171c-.237-.042-.479-.053-.719-.079-.152-.016-.35-.025-.384-.214a.259.259,0,0,1,.256-.292c.041,0,.082,0,.123,0C223.865,131.516,221.7,131.457,221.742,131.457Z" transform="translate(-212.964 -127.994)" fill="#fff"/>
      <path id="Path_28" data-name="Path 28" d="M231.285,154.02a.971.971,0,0,1-.021.148.241.241,0,0,1-.454.025.641.641,0,0,1-.025-.205,2.572,2.572,0,0,0-.325-1.29,2.4,2.4,0,0,0-1.007-.945,2.9,2.9,0,0,0-.8-.246c-.121-.02-.243-.032-.365-.049a.231.231,0,0,1-.219-.26.228.228,0,0,1,.254-.226,3.338,3.338,0,0,1,1.391.362,2.813,2.813,0,0,1,1.531,2.186c.007.045.017.089.021.133.008.11.014.221.022.367C231.282,154.047,231.277,153.875,231.285,154.02Z" transform="translate(-219.281 -146.374)" fill="#fff"/>
      <path id="Path_29" data-name="Path 29" d="M235.189,172.81a.262.262,0,0,1-.291-.258,2.677,2.677,0,0,0-.05-.339.955.955,0,0,0-.352-.553.919.919,0,0,0-.287-.138c-.13-.038-.266-.027-.4-.059a.243.243,0,0,1-.2-.281.255.255,0,0,1,.269-.205,1.46,1.46,0,0,1,1.5,1.454.673.673,0,0,1,0,.206.211.211,0,0,1-.19.174C235.011,172.813,235.27,172.8,235.189,172.81Z" transform="translate(-224.505 -165.215)" fill="#fff"/>
    </g>
  </g>
</svg>
